<svg width="35" height="35" viewBox="0 0 35 35" fill="none" xmlns="http://www.w3.org/2000/svg">
<g clip-path="url(#clip0_65_4146)">
<path d="M27.8174 -0.0449219H7.18316C3.1912 -0.0449219 -0.0449219 3.1912 -0.0449219 7.18316V27.8174C-0.0449219 31.8094 3.1912 35.0455 7.18316 35.0455H27.8174C31.8094 35.0455 35.0455 31.8094 35.0455 27.8174V7.18316C35.0455 3.1912 31.8094 -0.0449219 27.8174 -0.0449219Z" fill="#507CB7"/>
<path d="M16.0381 13.5159C14.9298 13.4654 13.8342 13.7699 12.9109 14.3851V5.95825C12.1348 5.95825 11.3906 6.26653 10.8419 6.81526C10.2931 7.36399 9.98486 8.10823 9.98486 8.88425V21.5502C9.98486 21.9344 10.0605 22.3149 10.2076 22.6699C10.3546 23.0249 10.5702 23.3475 10.8419 23.6192C11.1136 23.8909 11.4361 24.1064 11.7911 24.2534C12.1461 24.4005 12.5266 24.4762 12.9109 24.4762V23.1001C13.7043 23.6271 14.6266 23.9275 15.5783 23.9689C16.5299 24.0102 17.4748 23.7909 18.311 23.3347C19.1471 22.8785 19.8429 22.2026 20.3231 21.38C20.8034 20.5573 21.0499 19.6192 21.0361 18.6668C20.9999 15.9134 18.7885 13.6349 16.0381 13.5159Z" fill="white"/>
<path opacity="0.5" d="M22.1562 5.97046H17.7812C17.7381 5.97082 17.6964 5.98581 17.6629 6.01296C17.6295 6.04012 17.6062 6.07784 17.597 6.11994C17.5878 6.16203 17.5932 6.20601 17.6122 6.24467C17.6313 6.28333 17.6629 6.31437 17.7019 6.33271C18.365 6.65148 18.9344 7.13637 19.3547 7.74026C19.775 8.34414 20.032 9.04648 20.1006 9.77904C20.1692 10.5116 20.0472 11.2494 19.7464 11.9209C19.4455 12.5923 18.9761 13.1746 18.3838 13.611C19.3557 14.0851 20.1748 14.8227 20.7477 15.7398C21.3207 16.6569 21.6244 17.7166 21.6242 18.798C21.6242 21.4078 19.9074 23.5364 17.5356 24.223C16.6635 24.419 15.5937 24.5835 14.4369 24.318C14.0433 24.2232 13.6602 24.0887 13.2936 23.9167V24.4557L12.3667 28.4749C12.3459 28.5679 12.3541 28.6651 12.3902 28.7534C12.4263 28.8416 12.4886 28.9167 12.5687 28.9685C12.6487 29.0203 12.7427 29.0463 12.838 29.043C12.9333 29.0398 13.0254 29.0074 13.1017 28.9503L19.2611 24.4557H22.1568C22.9149 24.4557 23.6419 24.1546 24.1779 23.6185C24.714 23.0825 25.0151 22.3555 25.0151 21.5974V8.82879C25.0151 8.45338 24.9412 8.08165 24.7975 7.73482C24.6538 7.38799 24.4432 7.07287 24.1777 6.80744C23.9122 6.54201 23.5971 6.33148 23.2502 6.18787C22.9034 6.04426 22.5316 5.97038 22.1562 5.97046Z" fill="white"/>
</g>
<defs>
<clipPath id="clip0_65_4146">
<rect width="35" height="35" fill="white"/>
</clipPath>
</defs>
</svg>
